<?xml version="1.0" encoding="UTF-8" standalone="no"?>
<!-- Created with Inkscape (http://www.inkscape.org/) -->

<svg
   version="1.1"
   id="svg15432"
   width="1200"
   height="666.66669"
   viewBox="0 0 1200 666.66669"
   sodipodi:docname="kisspng-book-review-author-book-discussion-club-sam-walton-5b0e7bdad3faa0.0835825115276758668683.svg"
   inkscape:version="1.1 (c68e22c387, 2021-05-23)"
   xmlns:inkscape="http://www.inkscape.org/namespaces/inkscape"
   xmlns:sodipodi="http://sodipodi.sourceforge.net/DTD/sodipodi-0.dtd"
   xmlns="http://www.w3.org/2000/svg"
   xmlns:svg="http://www.w3.org/2000/svg">
  <defs
     id="defs15436" />
  <sodipodi:namedview
     id="namedview15434"
     pagecolor="#ffffff"
     bordercolor="#666666"
     borderopacity="1.0"
     inkscape:pageshadow="2"
     inkscape:pageopacity="0.0"
     inkscape:pagecheckerboard="0"
     showgrid="false"
     inkscape:zoom="0.92583333"
     inkscape:cx="679.92799"
     inkscape:cy="401.26013"
     inkscape:window-width="1280"
     inkscape:window-height="961"
     inkscape:window-x="-8"
     inkscape:window-y="-8"
     inkscape:window-maximized="1"
     inkscape:current-layer="g15438" />
  <g
     inkscape:groupmode="layer"
     inkscape:label="Image"
     id="g15438">
    <g
       id="g20954">
      <path
         style="fill:none;stroke:#000000;stroke-width:1px;stroke-linecap:butt;stroke-linejoin:miter;stroke-opacity:1"
         d="m 369.39694,523.85239 c 88.48426,-9.70216 153.32428,-6.2151 230.60306,20.52205 68.63903,-21.16528 121.22988,-29.77894 170.13421,-23.77901 18.81052,2.30781 36.51718,-0.0337 55.06831,5.41717 l 6.48065,-328.35283 h -17.28173 v 0 l -2.16022,294.86948 c -57.25132,-2.60667 -135.38663,1.97517 -211.70117,38.88389 -28.54584,-12.3309 -60.80159,-23.07184 -99.41224,-31.08925 l -63.62148,-8.18216 -51.90777,0.38752 -0.54005,-298.1098 -16.74168,4.32042 z"
         id="path15475"
         sodipodi:nodetypes="ccscccccccccccc" />
      <path
         style="fill:none;stroke:#000000;stroke-width:1px;stroke-linecap:butt;stroke-linejoin:miter;stroke-opacity:1"
         d="m 396.39964,163.09631 v 315.39153 c 44.06083,1.05136 84.21349,5.75781 119.98142,14.20271 29.56946,6.98142 54.37827,17.93986 83.07888,27.38146 38.38922,-11.55442 76.96524,-30.44218 116.6389,-33.00548 32.99284,-6.14517 62.60019,-8.90485 86.96147,-6.41847 l 0.54005,-318.63186 h -19.44194 v 293.78938 c -62.28623,5.96253 -122.41224,31.33687 -185.23852,53.46534 L 495.20725,472.62768 414.22143,456.34563 412.60126,162.0162 Z"
         id="path15477"
         sodipodi:nodetypes="ccsccccccccccc" />
      <path
         style="fill:none;stroke:#000000;stroke-width:1px;stroke-linecap:butt;stroke-linejoin:miter;stroke-opacity:1"
         d="m 424.48245,125.29253 -0.54005,322.41224 46.53007,7.16414 46.70742,12.91866 76.33946,30.68228 0,-318.63186 -71.87609,-32.30515 c -28.27304,-9.17653 -58.87512,-17.35491 -97.16081,-22.24031 z"
         id="path15479"
         sodipodi:nodetypes="cccccccc" />
      <path
         style="fill:none;stroke:#000000;stroke-width:1px;stroke-linecap:butt;stroke-linejoin:miter;stroke-opacity:1"
         d="m 776.0576,126.9127 -0.54005,318.63186 C 719.22952,457.58417 660.2793,471.58663 605.40054,496.30963 L 604.32043,181.45815 C 656.74861,149.85456 723.40956,131.41747 776.0576,126.9127 Z"
         id="path15481"
         sodipodi:nodetypes="ccccc" />
      <path
         style="fill:#f9f9f9;fill-rule:evenodd;stroke:#105668;stroke-width:1.00016;stroke-linecap:round;stroke-linejoin:round"
         d="m 554.63546,481.63321 c -44.26263,-17.83296 -70.8189,-25.71022 -103.69037,-30.75716 -11.58415,-1.77858 -22.15571,-3.472 -23.49234,-3.76316 l -2.43025,-0.52938 V 286.60858 126.63366 l 6.75068,0.74369 c 12.37373,1.36314 48.65985,9.12618 66.15661,14.15352 20.55013,5.90466 21.12023,6.12886 62.24947,24.4806 l 32.19781,14.36657 0.0311,157.96579 c 0.0171,86.88119 -0.33345,157.94366 -0.779,157.91659 -0.44554,-0.027 -17.0927,-6.60931 -36.99369,-14.62721 z"
         id="path19157" />
      <path
         style="fill:#f9f9f9;fill-rule:evenodd;stroke:#105668;stroke-width:1.00016;stroke-linecap:round;stroke-linejoin:round"
         d="m 606.11972,388.07586 c -0.39488,-58.39222 -0.71824,-128.63092 -0.71857,-156.08601 l -6.1e-4,-49.91833 7.83078,-4.38798 c 43.80353,-24.54529 102.03338,-42.86767 156.07561,-49.11013 l 5.67057,-0.65501 v 158.25245 158.25244 l -2.43025,0.55207 c -84.76684,19.25604 -116.69772,28.72189 -164.53795,48.77702 -0.83466,0.34989 -1.3781,-30.04244 -1.88958,-105.67652 z"
         id="path19196" />
      <path
         style="fill:#4d4d4d;fill-rule:evenodd;stroke:#105668;stroke-width:1.00016;stroke-linecap:round;stroke-linejoin:round"
         d="m 441.22412,518.9919 c 0,-0.59406 0.75776,-1.08011 1.68391,-1.08011 0.92615,0 1.38351,0.48605 1.01636,1.08011 -0.36715,0.59406 -1.1249,1.08011 -1.6839,1.08011 -0.559,0 -1.01637,-0.48605 -1.01637,-1.08011 z"
         id="path19235" />
      <path
         style="fill:#4d4d4d;fill-rule:evenodd;stroke:#105668;stroke-width:1.00016;stroke-linecap:round;stroke-linejoin:round"
         d="m 561.65617,483.24688 c -50.20071,-20.02477 -74.70846,-27.40573 -110.71108,-33.34271 -10.99009,-1.81231 -21.0756,-3.54389 -22.41224,-3.84794 l -2.43024,-0.55283 V 286.7481 c 0,-152.9643 0.0719,-158.7553 1.97131,-158.7553 3.55873,0 26.29011,4.33889 45.91504,8.76411 32.64445,7.36098 47.12521,12.69937 103.5988,38.19215 l 13.77138,6.21654 -0.0119,152.44151 c -0.006,83.84282 -0.31315,154.26418 -0.68137,156.4919 -0.36822,2.22772 -0.97043,4.02085 -1.33824,3.98475 -0.36783,-0.0361 -12.81999,-4.91271 -27.67147,-10.83688 z"
         id="path19533" />
      <path
         style="fill:#cccccc;fill-rule:evenodd;stroke:#105668;stroke-width:1.00016;stroke-linecap:round;stroke-linejoin:round"
         d="m 608.29091,479.30671 c -0.37807,-7.03125 -1.01963,-76.70989 -1.42569,-154.84139 l -0.7383,-142.05729 20.96894,-10.40756 c 11.53292,-5.72416 28.14274,-13.1247 36.91072,-16.44564 31.17645,-11.80835 71.67581,-21.85685 104.22386,-25.85949 l 5.67418,-0.6978 -0.27364,157.36317 -0.27364,157.36316 -9.18092,2.07875 c -69.33416,15.6987 -112.14214,28.42802 -154.0167,45.79814 -0.7949,0.32974 -1.40631,-3.69248 -1.86881,-12.29405 z"
         id="path19572" />
      <path
         style="fill:#ececec;fill-rule:evenodd;stroke:#105668;stroke-width:1.00016;stroke-linecap:round;stroke-linejoin:round"
         d="M 562.73627,482.62727 C 511.60017,462.54738 487.16488,455.2532 448.24482,448.45044 l -20.52205,-3.587 V 287.59808 c 0,-86.49595 0.36435,-157.62963 0.80966,-158.07486 0.98578,-0.98559 36.62108,5.91067 56.22992,10.88179 24.22675,6.14183 42.90493,13.20532 85.27379,32.2478 l 19.70283,8.85534 0.27376,151.90102 c 0.15056,83.54555 -0.0925,153.58766 -0.54006,155.64913 l -0.8138,3.74813 z"
         id="path19648" />
      <path
         style="fill:#ececec;fill-rule:evenodd;stroke:#105668;stroke-width:1.00016;stroke-linecap:round;stroke-linejoin:round"
         d="M 561.65617,481.07522 C 513.63562,462.29023 486.63093,454.29481 448.35982,447.53101 l -20.40706,-3.60662 0.77716,-156.60772 c 0.42744,-86.13425 0.8713,-156.70187 0.98636,-156.81693 0.41756,-0.41755 29.68726,5.22478 43.91108,8.46477 28.98899,6.60327 47.33952,13.16974 91.53916,32.75594 l 24.0324,10.64949 -0.006,145.35869 c -0.006,135.02628 -0.35993,163.27258 -2.04381,163.12255 -0.3575,-0.0319 -11.82911,-4.43104 -25.49248,-9.77596 z"
         id="path19724" />
      <path
         style="fill:#ff0000;fill-rule:evenodd;stroke:#105668;stroke-width:1.00016;stroke-linecap:round;stroke-linejoin:round"
         d="m 610.14799,488.56598 c -1.03558,-1.6756 -2.37944,-125.63799 -2.50082,-230.68298 l -0.0864,-74.79027 15.1092,-7.56901 c 46.47007,-23.27936 88.15921,-36.12837 145.55686,-44.86209 l 4.59046,-0.69849 -0.002,156.44057 -0.002,156.44057 -20.78972,4.7293 c -46.31114,10.53496 -92.70338,23.90773 -122.31987,35.25923 -8.31683,3.1877 -15.92293,6.09904 -16.90245,6.46963 -0.97951,0.3706 -2.17315,0.0392 -2.65253,-0.73646 z"
         id="path19763" />
      <path
         style="fill:#ff0000;fill-rule:evenodd;stroke:#105668;stroke-width:1.00016;stroke-linecap:round;stroke-linejoin:round"
         d="m 591.35914,540.46444 c -10.23158,-3.67198 -32.1983,-9.62043 -47.45124,-12.8495 -49.29153,-10.43506 -96.4594,-12.29158 -159.66134,-6.28423 -7.27826,0.6918 -13.45447,1.03654 -13.72492,0.76609 -0.27044,-0.27045 -0.63414,-72.94569 -0.80821,-161.50054 l -0.31649,-161.00881 6.65793,-1.77392 c 3.66186,-0.97566 6.94269,-1.77393 7.29073,-1.77393 0.34804,0 0.6328,58.73426 0.6328,130.52057 0,71.78631 0.31935,138.61799 0.70967,148.51485 l 0.70968,17.99429 h 25.5103 c 23.44899,0 28.22387,0.34925 59.0929,4.32225 27.21231,3.50236 37.55386,5.33236 54.5181,9.64727 21.33558,5.42679 48.91838,14.3554 65.31287,21.14192 5.01229,2.07484 9.67508,3.77245 10.36173,3.77245 0.68667,0 7.56268,-2.70462 15.28004,-6.01025 26.99472,-11.56286 60.88273,-21.48323 89.83684,-26.29885 25.99121,-4.32283 42.04834,-5.67038 74.70843,-6.26969 l 32.5842,-0.59793 0.59774,-6.0642 c 0.32876,-3.33532 0.91448,-69.61507 1.30161,-147.28834 l 0.70385,-141.22412 h 7.76727 7.76727 l -0.31768,6.21062 c -0.17472,3.41584 -1.61776,76.68767 -3.20675,162.82628 -1.58899,86.13862 -2.99221,156.75369 -3.11827,156.92238 -0.12606,0.16871 -2.60242,-0.22846 -5.50304,-0.88259 -2.9006,-0.65412 -13.77968,-1.62672 -24.17572,-2.16133 -10.39604,-0.53463 -24.49145,-1.543 -31.32313,-2.24086 -7.77577,-0.79428 -20.29835,-1.02798 -33.48335,-0.62485 -34.46545,1.05375 -67.14442,6.88013 -113.59725,20.25344 -8.12205,2.33825 -15.65581,4.21585 -16.74167,4.17244 -1.08587,-0.0434 -4.64758,-1.03832 -7.9149,-2.21091 z"
         id="path19876" />
      <path
         style="fill:#ff7f2a;fill-rule:evenodd;stroke:#105668;stroke-width:1.00016;stroke-linecap:round;stroke-linejoin:round"
         d="M 571.37714,509.09531 C 556.52565,503.74112 538.75204,497.7386 531.88021,495.75639 499.40563,486.3889 456.71836,480.02688 415.0315,478.34152 l -18.09181,-0.73144 V 320.62323 163.63636 h 7.38344 7.38343 l 0.74664,146.56392 c 0.41066,80.61016 0.90104,146.71832 1.08975,146.90703 0.1887,0.1887 18.52387,3.98142 40.74481,8.42826 l 40.40171,8.08518 52.06937,18.42702 52.06937,18.42703 35.95943,-12.91279 c 71.53773,-25.68874 100.81479,-34.05556 136.40948,-38.98322 l 12.9613,-1.79433 0.27388,-147.1141 0.27388,-147.1141 h 9.34707 9.34707 l -0.70675,18.63186 c -0.38872,10.24752 -0.70825,81.45364 -0.71007,158.23582 l -0.003,139.60396 h -17.16729 c -19.43508,0 -32.18058,1.09229 -56.28006,4.82321 -9.20792,1.42551 -19.41494,2.89079 -22.68226,3.25618 -16.40947,1.83513 -37.49405,7.9073 -84.04481,24.20417 -12.06623,4.22424 -22.27325,7.64406 -22.68227,7.59959 -0.40902,-0.0445 -12.89489,-4.46156 -27.74637,-9.81574 z"
         id="path20063" />
      <path
         style="fill:#ffff00;fill-rule:evenodd;stroke:#105668;stroke-width:1.00016;stroke-linecap:round;stroke-linejoin:round"
         d="m 611.27158,487.55623 c -0.94977,-1.53676 -2.55425,-141.48875 -2.59411,-226.27239 l -0.0366,-77.87006 17.09055,-8.21118 c 46.9461,-22.5553 85.8565,-34.50297 141.4153,-43.4224 l 4.59046,-0.73695 v 155.52206 155.52208 l -8.37083,1.83473 c -49.53637,10.85751 -102.3591,25.8896 -136.10228,38.73147 -8.47011,3.22353 -15.66673,5.42971 -15.99248,4.90264 z"
         id="path20472" />
      <path
         style="fill:#ffff00;fill-rule:evenodd;stroke:#105668;stroke-width:1.00016;stroke-linecap:round;stroke-linejoin:round"
         d="m 561.65617,479.86355 c -47.5249,-18.2417 -74.82875,-26.3099 -112.17264,-33.14665 -10.01178,-1.83291 -18.63914,-3.33256 -19.17192,-3.33256 -1.15704,0 -1.2433,-72.41231 -0.25178,-211.34659 l 0.7169,-100.4529 10.89426,1.96206 c 49.48458,8.91219 73.47273,16.90552 140.2372,46.72982 l 6.21062,2.77434 -0.13235,142.31785 c -0.0728,78.27482 -0.43733,147.20309 -0.81009,153.17394 l -0.67772,10.85609 z"
         id="path20548" />
      <path
         style="fill:#0000ff;fill-rule:evenodd;stroke:#105668;stroke-width:1.00016;stroke-linecap:round;stroke-linejoin:round"
         d="m 562.19622,478.96957 c -44.58287,-17.15327 -74.20685,-25.95843 -110.37477,-32.80676 -11.12683,-2.10684 -19.98767,-4.31807 -20.5598,-5.13071 -0.9928,-1.41017 -0.16674,-306.51045 0.83258,-307.50977 0.72443,-0.72443 19.45361,2.73162 38.23699,7.05576 28.48454,6.55746 52.37385,15.04696 96.98391,34.46501 l 19.70037,8.57526 0.0116,124.30725 c 0.0111,119.03494 -0.68341,179.84651 -2.05176,179.65316 -0.3503,-0.0495 -10.60091,-3.92364 -22.77912,-8.6092 z"
         id="path20587" />
      <path
         style="fill:#0000ff;fill-rule:evenodd;stroke:#105668;stroke-width:1.00016;stroke-linecap:round;stroke-linejoin:round"
         d="m 611.34214,452.83528 c -0.43333,-18.56435 -0.85385,-86.70638 -0.93449,-151.42672 l -0.14662,-117.67335 17.82178,-8.35751 c 46.79463,-21.94431 81.88442,-32.701 138.52385,-42.46417 l 4.05041,-0.69818 v 154.4838 154.48382 l -2.43025,0.55695 c -45.0042,10.31393 -65.52776,15.59656 -93.15931,23.97863 -8.91089,2.70312 -17.86799,5.3922 -19.90466,5.97571 -2.03668,0.58352 -12.37202,4.17347 -22.96743,7.97767 -10.59541,3.8042 -19.44461,6.91673 -19.66489,6.91673 -0.22029,0 -0.75506,-15.18902 -1.18839,-33.75338 z"
         id="path20663" />
      <path
         style="fill:#0000ff;fill-rule:evenodd;stroke:#105668;stroke-width:1.00016;stroke-linecap:round;stroke-linejoin:round"
         d="m 585.41854,512.98757 c -24.38864,-8.90516 -50.7621,-17.67563 -61.33413,-20.39664 -30.68454,-7.89754 -63.37984,-12.60417 -103.11231,-14.84348 l -22.9523,-1.2936 V 320.58516 164.71647 h 6.48065 6.48065 l 0.12993,71.0171 c 0.17385,95.02324 1.3506,221.37503 2.0684,222.09143 0.31799,0.31738 18.78784,4.25868 41.0441,8.75842 l 40.46594,8.18136 52.07169,18.43129 52.0717,18.43129 11.11462,-3.98136 c 94.33779,-33.79268 121.50748,-41.98059 156.12556,-47.05032 8.75884,-1.28271 16.45401,-2.47523 17.10038,-2.65005 2.00355,-0.54188 2.60516,-39.86238 2.60516,-170.271 V 163.63636 h 8.27311 8.27309 l -0.71234,24.47699 c -0.3918,13.46234 -0.71235,84.18241 -0.71235,157.15572 v 132.67872 l -14.31143,0.0111 c -18.67559,0.0146 -34.49694,1.45098 -66.06846,5.99844 -32.69325,4.70905 -39.47975,6.43818 -84.61356,21.55866 -20.35036,6.81766 -37.11904,12.35264 -37.26373,12.29994 -0.14469,-0.0527 -6.09566,-2.22545 -13.22437,-4.82839 z"
         id="path20739" />
      <path
         style="fill:#0000ff;fill-rule:evenodd;stroke:#105668;stroke-width:1.00016;stroke-linecap:round;stroke-linejoin:round"
         d="m 589.73897,538.8405 c -21.3364,-7.5428 -60.16964,-15.85569 -91.0538,-19.49153 -22.45547,-2.64357 -74.96495,-2.61481 -104.78556,0.0574 -12.06808,1.08141 -22.11578,1.79239 -22.32822,1.57996 -0.21244,-0.2124 -0.54557,-72.39976 -0.7403,-160.41633 l -0.35404,-160.03011 4.32043,-1.23888 c 2.37624,-0.68139 5.17102,-1.48367 6.21062,-1.78286 1.79237,-0.51582 1.89019,5.87891 1.89019,123.56669 0,68.26085 0.31888,135.0678 0.70863,148.45987 l 0.70863,24.34922 30.34447,0.56829 c 31.12736,0.58295 52.95708,2.73535 84.88993,8.37014 24.18453,4.26754 59.14796,14.45653 87.72531,25.5648 l 12.73724,4.95107 19.16566,-7.61339 C 677.3062,502.644 724.37359,494.22242 795.62383,494.16413 l 17.94605,-0.0147 0.67098,-14.31143 c 0.36903,-7.87128 0.99149,-74.21692 1.38323,-147.43474 l 0.71226,-133.12331 6.5933,-0.001 6.5933,-0.001 -0.28127,11.07232 c -0.27266,10.73358 -3.77969,192.81328 -5.26378,273.28788 -0.65683,35.61662 -0.90999,39.66194 -2.45415,39.21543 -3.30008,-0.95424 -11.6476,-1.73058 -42.76587,-3.97734 -58.34302,-4.21241 -93.96144,-0.38571 -156.61567,16.82617 -11.88118,3.2639 -22.33123,5.90671 -23.22232,5.87289 -0.89109,-0.0338 -5.0225,-1.26426 -9.18092,-2.73435 z"
         id="path20778" />
    </g>
  </g>
</svg>
